<?xml version="1.0" encoding="iso-8859-1"?>
<!-- Uploaded to: SVG Repo, www.svgrepo.com, Generator: SVG Repo Mixer Tools -->
<svg version="1.1" id="Layer_1" xmlns="http://www.w3.org/2000/svg" xmlns:xlink="http://www.w3.org/1999/xlink" 
	 viewBox="0 0 512 512" xml:space="preserve">
<g>
	<path style="fill:#A0F6FA;" d="M256,0c-5.751,0-11.39,0.482-16.879,1.402l80.071,70.527l32.505-3.863C337.95,28.446,300.3,0,256,0z
		"/>
	<path style="fill:#A0F6FA;" d="M376.967,67.516c-5.813,0-11.444,0.757-16.824,2.143l-16.934,132.89h33.758
		c37.288,0,67.517-30.228,67.517-67.516S414.255,67.516,376.967,67.516z"/>
</g>
<path style="fill:#D0FBFD;" d="M410.725,135.033c0-31.44-21.49-57.859-50.582-65.374c-2.452,0.631-4.856,1.381-7.192,2.27
	c-0.393-1.299-0.81-2.587-1.254-3.863c-2.783-0.349-5.612-0.549-8.489-0.549c-8.462,0-16.553,1.571-24.017,4.413
	c-11-36.387-41.916-64.125-80.071-70.527c-38.155,6.403-69.073,34.141-80.071,70.527c-7.464-2.842-15.555-4.413-24.017-4.413
	c-37.288,0-67.516,30.228-67.516,67.516s30.228,67.516,67.516,67.516h208.176C380.497,202.549,410.725,172.321,410.725,135.033z"/>
<path style="fill:#B7D9DD;" d="M256,115.341l-11.253,16.879L256,149.099c29.52,0,53.451,23.931,53.451,53.451s0,120.967,0,120.967
	h33.758c0,0,0-72.803,0-120.967S304.164,115.341,256,115.341z"/>
<path style="fill:#C7E7EB;" d="M168.791,202.549c0,48.164,0,120.967,0,120.967h33.758c0,0,0-91.448,0-120.967
	s23.93-53.451,53.451-53.451v-33.758C207.836,115.341,168.791,154.385,168.791,202.549z"/>
<polygon style="fill:#88ACB5;" points="343.209,289.758 309.451,400.879 343.209,512 376.967,512 376.967,289.758 "/>
<rect x="135.033" y="289.758" style="fill:#A7CBCF;" width="208.176" height="222.242"/>
<g>
	<circle style="fill:#2F5E88;" cx="256" cy="384" r="16.879"/>
	<path style="fill:#2F5E88;" d="M247.56,389.626v45.011c0,4.662,3.779,8.44,8.44,8.44c4.661,0,8.44-3.778,8.44-8.44v-45.011H247.56z
		"/>
</g>
<g>
	<circle style="fill:#88ACB5;" cx="210.989" cy="469.802" r="8.44"/>
	<circle style="fill:#88ACB5;" cx="177.231" cy="436.044" r="8.44"/>
</g>
</svg>